<svg width="20" height="20" viewBox="0 0 20 20" fill="none" xmlns="http://www.w3.org/2000/svg">
<path d="M6.61598 17.9551C6.38164 17.7207 6.25 17.4028 6.25 17.0713C6.25 16.7399 6.38164 16.422 6.61598 16.1876L12.8035 10.0001L6.61598 3.81256C6.38829 3.57681 6.26229 3.26106 6.26514 2.93331C6.26799 2.60556 6.39945 2.29205 6.63121 2.06029C6.86297 1.82853 7.17649 1.69707 7.50423 1.69422C7.83198 1.69137 8.14773 1.81736 8.38348 2.04506L15.4547 9.11631C15.6891 9.35072 15.8207 9.66861 15.8207 10.0001C15.8207 10.3315 15.6891 10.6494 15.4547 10.8838L8.38348 17.9551C8.14907 18.1894 7.83119 18.321 7.49973 18.321C7.16828 18.321 6.85039 18.1894 6.61598 17.9551Z" fill="black"/>
</svg>
