<svg width="30" height="30" viewBox="0 0 30 30" fill="none" xmlns="http://www.w3.org/2000/svg">
<path fill-rule="evenodd" clip-rule="evenodd" d="M13.1617 6.83741C13.3372 7.01319 13.4359 7.25147 13.4359 7.49991C13.4359 7.74835 13.3372 7.98663 13.1617 8.16241L7.26168 14.0624H24.9992C25.2478 14.0624 25.4863 14.1612 25.6621 14.337C25.8379 14.5128 25.9367 14.7513 25.9367 14.9999C25.9367 15.2485 25.8379 15.487 25.6621 15.6628C25.4863 15.8386 25.2478 15.9374 24.9992 15.9374H7.26168L13.1617 21.8374C13.2538 21.9232 13.3277 22.0267 13.3789 22.1417C13.4301 22.2567 13.4577 22.3809 13.4599 22.5068C13.4621 22.6326 13.439 22.7577 13.3918 22.8744C13.3447 22.9911 13.2745 23.0972 13.1855 23.1862C13.0964 23.2752 12.9904 23.3454 12.8737 23.3926C12.7569 23.4397 12.6319 23.4629 12.506 23.4606C12.3801 23.4584 12.256 23.4309 12.141 23.3796C12.026 23.3284 11.9225 23.2545 11.8367 23.1624L4.33668 15.6624C4.16111 15.4866 4.0625 15.2483 4.0625 14.9999C4.0625 14.7515 4.16111 14.5132 4.33668 14.3374L11.8367 6.83741C12.0125 6.66184 12.2507 6.56323 12.4992 6.56323C12.7476 6.56323 12.9859 6.66184 13.1617 6.83741Z" fill="black"/>
</svg>
