<svg width="15" height="15" viewBox="0 0 15 15" fill="none" xmlns="http://www.w3.org/2000/svg">
<path d="M7.5 1.52344C6.31795 1.52344 5.16244 1.87396 4.1796 2.53067C3.19676 3.18738 2.43073 4.12079 1.97838 5.21287C1.52603 6.30494 1.40767 7.50663 1.63828 8.66597C1.86889 9.82531 2.4381 10.8902 3.27393 11.7261C4.10977 12.5619 5.17469 13.1311 6.33403 13.3617C7.49337 13.5923 8.69506 13.474 9.78713 13.0216C10.8792 12.5693 11.8126 11.8032 12.4693 10.8204C13.126 9.83756 13.4766 8.68205 13.4766 7.5C13.4747 5.91549 12.8444 4.39641 11.724 3.27599C10.6036 2.15557 9.08451 1.5253 7.5 1.52344ZM7.5 12.7734C6.45702 12.7734 5.43745 12.4642 4.57024 11.8847C3.70303 11.3053 3.02712 10.4817 2.62798 9.51806C2.22885 8.55446 2.12442 7.49415 2.32789 6.4712C2.53137 5.44826 3.03362 4.50862 3.77112 3.77112C4.50862 3.03361 5.44826 2.53137 6.47121 2.32789C7.49415 2.12441 8.55447 2.22885 9.51806 2.62798C10.4817 3.02711 11.3053 3.70302 11.8847 4.57024C12.4642 5.43745 12.7734 6.45701 12.7734 7.5C12.7719 8.89813 12.2158 10.2385 11.2272 11.2272C10.2385 12.2158 8.89813 12.7719 7.5 12.7734ZM11.1328 7.5C11.1328 7.59324 11.0958 7.68266 11.0298 7.74859C10.9639 7.81452 10.8745 7.85156 10.7813 7.85156H7.5C7.40676 7.85156 7.31734 7.81452 7.25141 7.74859C7.18548 7.68266 7.14844 7.59324 7.14844 7.5V4.21875C7.14844 4.12551 7.18548 4.03609 7.25141 3.97016C7.31734 3.90423 7.40676 3.86719 7.5 3.86719C7.59324 3.86719 7.68266 3.90423 7.7486 3.97016C7.81453 4.03609 7.85157 4.12551 7.85157 4.21875V7.14844H10.7813C10.8745 7.14844 10.9639 7.18548 11.0298 7.25141C11.0958 7.31734 11.1328 7.40676 11.1328 7.5Z" fill="black"/>
</svg>
