<svg width="20" height="20" viewBox="0 0 20 20" fill="none" xmlns="http://www.w3.org/2000/svg">
<path d="M18.5938 6.875V11.875C18.5938 11.9993 18.5444 12.1185 18.4565 12.2065C18.3685 12.2944 18.2493 12.3438 18.125 12.3438H13.125C13.0007 12.3438 12.8815 12.2944 12.7935 12.2065C12.7056 12.1185 12.6562 11.9993 12.6562 11.875C12.6562 11.7507 12.7056 11.6315 12.7935 11.5435C12.8815 11.4556 13.0007 11.4062 13.125 11.4062H16.9883L14.9727 9.40391C13.9894 8.42034 12.7366 7.75044 11.3726 7.47896C10.0086 7.20747 8.59469 7.34658 7.30976 7.8787C6.02483 8.41082 4.92656 9.31204 4.15386 10.4684C3.38116 11.6247 2.96874 12.9842 2.96875 14.375C2.96875 14.4993 2.91936 14.6185 2.83146 14.7065C2.74355 14.7944 2.62432 14.8438 2.5 14.8438C2.37568 14.8438 2.25645 14.7944 2.16854 14.7065C2.08064 14.6185 2.03125 14.4993 2.03125 14.375C2.0314 12.799 2.49884 11.2585 3.37447 9.9482C4.2501 8.63789 5.49459 7.61663 6.95059 7.01356C8.4066 6.41048 10.0087 6.25268 11.5544 6.56009C13.1001 6.8675 14.5199 7.62633 15.6344 8.74062L17.6562 10.7484V6.875C17.6562 6.75068 17.7056 6.63145 17.7935 6.54354C17.8815 6.45564 18.0007 6.40625 18.125 6.40625C18.2493 6.40625 18.3685 6.45564 18.4565 6.54354C18.5444 6.63145 18.5938 6.75068 18.5938 6.875Z" fill="black"/>
</svg>
