<svg width="40" height="40" viewBox="0 0 40 40" fill="none" xmlns="http://www.w3.org/2000/svg">
<path d="M33.333 29.9998H29.9997V15.4165L19.9997 21.6665L9.99967 15.4165V29.9998H6.66634V9.99984H8.66634L19.9997 17.0832L31.333 9.99984H33.333M33.333 6.6665H6.66634C4.81634 6.6665 3.33301 8.14984 3.33301 9.99984V29.9998C3.33301 30.8839 3.6842 31.7317 4.30932 32.3569C4.93444 32.982 5.78229 33.3332 6.66634 33.3332H33.333C34.2171 33.3332 35.0649 32.982 35.69 32.3569C36.3152 31.7317 36.6663 30.8839 36.6663 29.9998V9.99984C36.6663 9.11578 36.3152 8.26794 35.69 7.64281C35.0649 7.01769 34.2171 6.6665 33.333 6.6665Z" fill="black"/>
</svg>
