<svg width="60" height="59" viewBox="0 0 60 59" fill="none" xmlns="http://www.w3.org/2000/svg">
<path d="M14.0375 49.1666C12.8875 49.1666 11.9275 48.7881 11.1575 48.0309C10.3858 47.2721 10 46.3273 10 45.1964V13.8035C10 12.6727 10.3858 11.7287 11.1575 10.9715C11.9275 10.2127 12.8875 9.83331 14.0375 9.83331H30.0475V12.2916H14.0375C13.6542 12.2916 13.3017 12.449 12.98 12.7636C12.66 13.08 12.5 13.4266 12.5 13.8035V45.1964C12.5 45.5734 12.66 45.92 12.98 46.2363C13.3017 46.551 13.6542 46.7083 14.0375 46.7083H30.0475V49.1666H14.0375ZM41.155 38.1976L39.4 36.43L45.1975 30.7291H22.98V28.2708H45.1975L39.3975 22.5675L41.155 20.8024L50 29.5L41.155 38.1976Z" fill="black"/>
</svg>
