<svg width="20" height="20" viewBox="0 0 20 20" fill="none" xmlns="http://www.w3.org/2000/svg">
<g clip-path="url(#clip0_241_381)">
<path fill-rule="evenodd" clip-rule="evenodd" d="M8.4365 2.5067C8.65572 2.53417 8.85506 2.64756 8.9907 2.82196C9.12634 2.99635 9.18718 3.21747 9.15984 3.4367L8.7565 6.6667H12.0765L12.5065 3.23004C12.5177 3.1195 12.5508 3.01232 12.604 2.91479C12.6572 2.81726 12.7294 2.73135 12.8163 2.66211C12.9031 2.59287 13.003 2.5417 13.1099 2.51161C13.2169 2.48153 13.3287 2.47312 13.439 2.4869C13.5492 2.50068 13.6556 2.53637 13.7518 2.59185C13.8481 2.64734 13.9323 2.72151 13.9994 2.81C14.0666 2.8985 14.1154 2.99953 14.1429 3.10715C14.1705 3.21478 14.1762 3.32682 14.1598 3.4367L13.7565 6.6667H16.6665C16.8875 6.6667 17.0995 6.7545 17.2558 6.91078C17.412 7.06706 17.4998 7.27902 17.4998 7.50004C17.4998 7.72105 17.412 7.93301 17.2558 8.08929C17.0995 8.24557 16.8875 8.33337 16.6665 8.33337H13.5482L13.1315 11.6667H16.2498C16.4709 11.6667 16.6828 11.7545 16.8391 11.9108C16.9954 12.0671 17.0832 12.279 17.0832 12.5C17.0832 12.7211 16.9954 12.933 16.8391 13.0893C16.6828 13.2456 16.4709 13.3334 16.2498 13.3334H12.9232L12.4932 16.77C12.482 16.8806 12.4488 16.9878 12.3957 17.0853C12.3425 17.1828 12.2703 17.2687 12.1834 17.338C12.0965 17.4072 11.9967 17.4584 11.8898 17.4885C11.7828 17.5185 11.6709 17.5269 11.5607 17.5132C11.4505 17.4994 11.3441 17.4637 11.2478 17.4082C11.1516 17.3527 11.0674 17.2786 11.0003 17.1901C10.9331 17.1016 10.8843 17.0005 10.8568 16.8929C10.8292 16.7853 10.8235 16.6733 10.8398 16.5634L11.2432 13.3334H7.92317L7.49317 16.77C7.482 16.8806 7.44885 16.9878 7.39565 17.0853C7.34246 17.1828 7.2703 17.2687 7.18342 17.338C7.09654 17.4072 6.9967 17.4584 6.88975 17.4885C6.78281 17.5185 6.67093 17.5269 6.5607 17.5132C6.45046 17.4994 6.34409 17.4637 6.24784 17.4082C6.1516 17.3527 6.06742 17.2786 6.00026 17.1901C5.93309 17.1016 5.8843 17.0005 5.85675 16.8929C5.8292 16.7853 5.82345 16.6733 5.83984 16.5634L6.24317 13.3334H3.74984C3.52882 13.3334 3.31686 13.2456 3.16058 13.0893C3.0043 12.933 2.9165 12.7211 2.9165 12.5C2.9165 12.279 3.0043 12.0671 3.16058 11.9108C3.31686 11.7545 3.52882 11.6667 3.74984 11.6667H6.4515L6.86817 8.33337H4.1665C3.94549 8.33337 3.73353 8.24557 3.57725 8.08929C3.42097 7.93301 3.33317 7.72105 3.33317 7.50004C3.33317 7.27902 3.42097 7.06706 3.57725 6.91078C3.73353 6.7545 3.94549 6.6667 4.1665 6.6667H7.0765L7.5065 3.23004C7.53397 3.01082 7.64736 2.81148 7.82176 2.67584C7.99615 2.5402 8.21727 2.47936 8.4365 2.5067ZM11.4515 11.6667L11.8682 8.33337H8.54817L8.1315 11.6667H11.4515Z" fill="black"/>
</g>
<defs>
<clipPath id="clip0_241_381">
<rect width="20" height="20" fill="white"/>
</clipPath>
</defs>
</svg>
