<svg width="60" height="60" viewBox="0 0 60 60" fill="none" xmlns="http://www.w3.org/2000/svg">
<path d="M53.7168 49.9219C50.0113 43.5188 44.1941 39.0258 37.4347 37.1203C40.721 35.4498 43.3489 32.7212 44.8947 29.3744C46.4404 26.0277 46.814 22.2578 45.9551 18.6728C45.0962 15.0878 43.0549 11.8965 40.1604 9.61349C37.2659 7.33052 33.6868 6.08893 30.0004 6.08893C26.3139 6.08893 22.7348 7.33052 19.8403 9.61349C16.9458 11.8965 14.9045 15.0878 14.0456 18.6728C13.1867 22.2578 13.5603 26.0277 15.106 29.3744C16.6518 32.7212 19.2797 35.4498 22.566 37.1203C15.8066 39.0235 9.98942 43.5164 6.28395 49.9219C6.1822 50.082 6.11388 50.2609 6.0831 50.4481C6.05232 50.6352 6.05971 50.8267 6.10483 51.0109C6.14995 51.1951 6.23187 51.3683 6.34566 51.52C6.45945 51.6717 6.60275 51.7989 6.76695 51.8938C6.93115 51.9887 7.11286 52.0494 7.30113 52.0723C7.48941 52.0952 7.68036 52.0797 7.86251 52.0269C8.04466 51.974 8.21424 51.8849 8.36104 51.7648C8.50785 51.6447 8.62885 51.4962 8.71676 51.3281C13.2191 43.5492 21.1738 38.9063 30.0004 38.9063C38.8269 38.9063 46.7816 43.5492 51.2839 51.3281C51.3719 51.4962 51.4929 51.6447 51.6397 51.7648C51.7865 51.8849 51.956 51.974 52.1382 52.0269C52.3203 52.0797 52.5113 52.0952 52.6996 52.0723C52.8878 52.0494 53.0695 51.9887 53.2338 51.8938C53.398 51.7989 53.5413 51.6717 53.655 51.52C53.7688 51.3683 53.8508 51.1951 53.8959 51.0109C53.941 50.8267 53.9484 50.6352 53.9176 50.4481C53.8868 50.2609 53.8185 50.082 53.7168 49.9219ZM16.4066 22.5C16.4066 19.8114 17.2039 17.1832 18.6976 14.9477C20.1913 12.7123 22.3143 10.9699 24.7982 9.94103C27.2822 8.91215 30.0154 8.64295 32.6524 9.16747C35.2893 9.69199 37.7115 10.9867 39.6126 12.8878C41.5137 14.7889 42.8084 17.2111 43.3329 19.848C43.8574 22.4849 43.5882 25.2182 42.5593 27.7021C41.5305 30.1861 39.7881 32.3091 37.5526 33.8028C35.3172 35.2965 32.6889 36.0938 30.0004 36.0938C26.3964 36.0894 22.9413 34.6558 20.3929 32.1075C17.8445 29.5591 16.4109 26.104 16.4066 22.5Z" fill="black"/>
</svg>
