<svg width="40" height="40" viewBox="0 0 40 40" fill="none" xmlns="http://www.w3.org/2000/svg">
<path d="M31.7503 8.18311C30.2223 6.63965 28.4023 5.41589 26.3964 4.58319C24.3905 3.7505 22.2389 3.32554 20.067 3.33311C10.967 3.33311 3.55033 10.7498 3.55033 19.8498C3.55033 22.7664 4.31699 25.5998 5.75033 28.0998L3.41699 36.6664L12.167 34.3664C14.5837 35.6831 17.3003 36.3831 20.067 36.3831C29.167 36.3831 36.5837 28.9664 36.5837 19.8664C36.5837 15.4498 34.867 11.2998 31.7503 8.18311ZM20.067 33.5831C17.6003 33.5831 15.1837 32.9164 13.067 31.6664L12.567 31.3664L7.36699 32.7331L8.75033 27.6664L8.41699 27.1498C7.04657 24.9614 6.31889 22.4318 6.31699 19.8498C6.31699 12.2831 12.4837 6.11644 20.0503 6.11644C23.717 6.11644 27.167 7.54977 29.7503 10.1498C31.0295 11.423 32.0432 12.9375 32.7326 14.6055C33.4221 16.2734 33.7737 18.0616 33.767 19.8664C33.8003 27.4331 27.6337 33.5831 20.067 33.5831ZM27.6003 23.3164C27.1837 23.1164 25.1503 22.1164 24.7837 21.9664C24.4003 21.8331 24.1337 21.7664 23.8503 22.1664C23.567 22.5831 22.7837 23.5164 22.5503 23.7831C22.317 24.0664 22.067 24.0998 21.6503 23.8831C21.2337 23.6831 19.9003 23.2331 18.3337 21.8331C17.1003 20.7331 16.2837 19.3831 16.0337 18.9664C15.8003 18.5498 16.0003 18.3331 16.217 18.1164C16.4003 17.9331 16.6337 17.6331 16.8337 17.3998C17.0337 17.1664 17.117 16.9831 17.2503 16.7164C17.3837 16.4331 17.317 16.1998 17.217 15.9998C17.117 15.7998 16.2837 13.7664 15.9503 12.9331C15.617 12.1331 15.267 12.2331 15.017 12.2164H14.217C13.9337 12.2164 13.5003 12.3164 13.117 12.7331C12.7503 13.1498 11.6837 14.1498 11.6837 16.1831C11.6837 18.2164 13.167 20.1831 13.367 20.4498C13.567 20.7331 16.2837 24.8998 20.417 26.6831C21.4003 27.1164 22.167 27.3664 22.767 27.5498C23.7503 27.8664 24.6503 27.8164 25.367 27.7164C26.167 27.5998 27.817 26.7164 28.1503 25.7498C28.5003 24.7831 28.5003 23.9664 28.3837 23.7831C28.267 23.5998 28.017 23.5164 27.6003 23.3164Z" fill="black"/>
</svg>
